<svg xmlns="http://www.w3.org/2000/svg" viewBox="0 0 64 64" role="img" aria-label="ARPGOV">
  <defs>
    <linearGradient id="arp-bg" x1="0%" y1="0%" x2="100%" y2="100%">
      <stop offset="0%" stop-color="#071D41"/>
      <stop offset="100%" stop-color="#1351B4"/>
    </linearGradient>
  </defs>
  <rect width="64" height="64" rx="12" fill="url(#arp-bg)"/>
  <path d="M17 43V21h10.8c5.8 0 9.6 3.1 9.6 7.8 0 3.2-1.6 5.7-4.2 6.8L41 43h-6.4l-5.8-6.4H22.8V43H17zm6-11.2h4.4c2.2 0 3.6-1.1 3.6-2.9s-1.4-2.9-3.6-2.9h-4.4v5.8z" fill="#FFFFFF"/>
  <path d="M42 21h5.4l7.6 22h-5.4l-1.3-4.1H41.2L40 43h-5.8L42 21zm3.9 13.2l-2.2-7-2.2 7h4.4z" fill="#FFCD07"/>
  <rect x="10" y="50" width="44" height="4" rx="2" fill="#FFCD07"/>
</svg>
